<?xml version="1.0" encoding="utf-8"?>
<!-- Generator: Adobe Illustrator 23.0.3, SVG Export Plug-In . SVG Version: 6.00 Build 0)  -->
<svg version="1.1" id="Layer_1" xmlns="http://www.w3.org/2000/svg" xmlns:xlink="http://www.w3.org/1999/xlink" x="0px" y="0px"
	 viewBox="0 0 432 432" style="enable-background:new 0 0 432 432;" xml:space="preserve">
<style type="text/css">
	.st0{fill:none;stroke:#231F20;stroke-width:0.5;stroke-miterlimit:10;}
	.st1{fill:#231F20;}
	.st2{fill:#FFFFFF;stroke:#231F20;stroke-miterlimit:10;}
	.st3{fill:#50D1B8;}
	.st4{fill:none;stroke:#FFFFFF;stroke-width:0.25;stroke-miterlimit:10;}
	.st5{fill:none;stroke:#231F20;stroke-width:4;stroke-miterlimit:10;}
	.st6{fill:#FFFFFF;}
</style>
<g>
	<path class="st3" d="M305.39,288.64v-0.43V149.54c0-21.18-17.17-38.36-38.36-38.36H93.88c-9.72,0-17.6,7.88-17.6,17.6v41.96
		c0,10.32,8.29,18.72,18.61,18.85l74.47,7.89c0.87,0.01,0.9,1.29,0.03,1.35l-66.16-3.09v60.72c0,17.54,14.22,31.75,31.75,31.75
		h115.04c4.71,0,8.97,1.89,12.08,4.95c13.84-5.97,25.93-16.14,34.09-29.86c-0.74,1.91-1.55,3.8-2.46,5.67
		c-6.36,13.04-16.08,23.32-27.59,30.39c0.72,1.9,1.13,3.95,1.13,6.1l0.18,47.37c0,2.85-2.31,5.16-5.16,5.16h-16.57
		c-5.81,0-10.52-4.71-10.52-10.52v-6.51c0-0.75,0.3-1.47,0.83-2l5.15-5.15c0.35-0.35,0.1-0.95-0.39-0.95l-30.28-0.18
		c-0.44,0-0.66,0.53-0.35,0.84l3.24,3.24c1.59,1.59,2.49,3.75,2.49,6v25.39c0,5.98,4.85,10.83,10.83,10.83h65.35
		c7.36,0,13.33-5.97,13.33-13.33v-69.51c9.4-6.85,17.31-16,22.77-27.18c0.91-1.87,1.72-3.77,2.46-5.67
		C324.24,273.99,315.49,282.55,305.39,288.64z M233.46,192.06c0-8.77,7.11-15.88,15.88-15.88c8.77,0,15.88,7.11,15.88,15.88H233.46z
		"/>
</g>
<g>
	<path class="st1" d="M304.31,286.1v-0.43V147c0-21.18-17.17-38.36-38.36-38.36H92.8c-9.72,0-17.6,7.88-17.6,17.6v41.96
		c0,10.32,8.29,18.72,18.61,18.85l74.47,7.89c0.87,0.01,0.9,1.29,0.03,1.35l-66.16-3.09v60.72c0,17.54,14.22,31.75,31.75,31.75
		h115.04c4.71,0,8.97,1.89,12.08,4.95c13.84-5.97,25.93-16.14,34.09-29.86c-0.74,1.91-1.55,3.8-2.46,5.67
		c-6.36,13.04-16.08,23.32-27.59,30.39c0.72,1.9,1.13,3.95,1.13,6.1l0.18,47.37c0,2.85-2.31,5.16-5.16,5.16h-16.57
		c-5.81,0-10.52-4.71-10.52-10.52v-6.51c0-0.75,0.3-1.47,0.83-2l5.15-5.15c0.35-0.35,0.1-0.95-0.39-0.95l-30.28-0.18
		c-0.44,0-0.66,0.53-0.35,0.84l3.24,3.24c1.59,1.59,2.49,3.75,2.49,6v25.39c0,5.98,4.85,10.83,10.83,10.83h65.35
		c7.36,0,13.33-5.97,13.33-13.33v-69.51c9.4-6.85,17.31-16,22.77-27.18c0.91-1.87,1.72-3.77,2.46-5.67
		C323.17,271.46,314.42,280.02,304.31,286.1z M232.38,189.53c0-8.77,7.11-15.88,15.88-15.88c8.77,0,15.88,7.11,15.88,15.88H232.38z"
		/>
</g>
</svg>
